<mxfile host="app.diagrams.net" modified="2023-02-15T09:15:49.626Z" agent="5.0 (Macintosh; Intel Mac OS X 10_15_7) AppleWebKit/537.36 (KHTML, like Gecko) Chrome/109.0.0.0 Safari/537.36" etag="drwwaE2qxGNG9hPmrA9J" version="20.8.17" type="github">
  <diagram name="第 1 页" id="-lpSoTU3flkW3hH8rkeh">
    <mxGraphModel dx="2133" dy="836" grid="1" gridSize="10" guides="1" tooltips="1" connect="1" arrows="1" fold="1" page="1" pageScale="1" pageWidth="827" pageHeight="1169" math="0" shadow="0">
      <root>
        <mxCell id="0" />
        <mxCell id="1" parent="0" />
        <mxCell id="Jk9G3dKGDSGm85qnFEIC-1" style="edgeStyle=orthogonalEdgeStyle;rounded=0;orthogonalLoop=1;jettySize=auto;html=1;exitX=0.5;exitY=0.5;exitDx=0;exitDy=0;exitPerimeter=0;strokeColor=#E07A5F;strokeWidth=2;fontColor=#393C56;startArrow=none;startFill=0;endArrow=classic;endFill=1;fillColor=#F2CC8F;fontSize=14;" edge="1" parent="1" source="Jk9G3dKGDSGm85qnFEIC-2">
          <mxGeometry relative="1" as="geometry">
            <mxPoint x="-679.6666666666667" y="252.5925925925926" as="targetPoint" />
          </mxGeometry>
        </mxCell>
        <mxCell id="Jk9G3dKGDSGm85qnFEIC-2" value="用工方" style="shape=umlActor;verticalLabelPosition=bottom;verticalAlign=top;html=1;outlineConnect=0;aspect=fixed;fontSize=14;labelBackgroundColor=none;fillColor=#F2CC8F;strokeColor=#E07A5F;fontColor=#393C56;" vertex="1" parent="1">
          <mxGeometry x="-772.9966666666667" y="223.70370370370372" width="26.666666666666664" height="53.33333333333333" as="geometry" />
        </mxCell>
        <mxCell id="Jk9G3dKGDSGm85qnFEIC-3" style="edgeStyle=orthogonalEdgeStyle;rounded=0;orthogonalLoop=1;jettySize=auto;html=1;exitX=0;exitY=0.5;exitDx=0;exitDy=0;strokeColor=#E07A5F;strokeWidth=2;fontColor=#393C56;startArrow=none;startFill=0;endArrow=classic;endFill=1;fillColor=#F2CC8F;fontSize=14;" edge="1" parent="1" source="Jk9G3dKGDSGm85qnFEIC-4">
          <mxGeometry relative="1" as="geometry">
            <mxPoint x="-546.3333333333335" y="399.92592592592587" as="targetPoint" />
          </mxGeometry>
        </mxCell>
        <mxCell id="Jk9G3dKGDSGm85qnFEIC-4" value="支付侧资金冻结" style="rounded=0;whiteSpace=wrap;html=1;aspect=fixed;fontSize=14;labelBackgroundColor=none;fillColor=#F2CC8F;strokeColor=#E07A5F;fontColor=#393C56;" vertex="1" parent="1">
          <mxGeometry x="-493" y="368.1481481481482" width="115.55555555555554" height="57.77777777777777" as="geometry" />
        </mxCell>
        <mxCell id="Jk9G3dKGDSGm85qnFEIC-5" value="成功" style="rhombus;whiteSpace=wrap;html=1;aspect=fixed;fontSize=14;labelBackgroundColor=none;fillColor=#F2CC8F;strokeColor=#E07A5F;fontColor=#393C56;" vertex="1" parent="1">
          <mxGeometry x="-630.7777777777778" y="358.51851851851853" width="80" height="80" as="geometry" />
        </mxCell>
        <mxCell id="Jk9G3dKGDSGm85qnFEIC-6" style="edgeStyle=orthogonalEdgeStyle;rounded=0;orthogonalLoop=1;jettySize=auto;html=1;exitX=0.5;exitY=1;exitDx=0;exitDy=0;strokeColor=#E07A5F;strokeWidth=2;fontColor=#393C56;startArrow=none;startFill=0;endArrow=classic;endFill=1;fillColor=#F2CC8F;fontSize=14;" edge="1" parent="1" source="Jk9G3dKGDSGm85qnFEIC-7">
          <mxGeometry relative="1" as="geometry">
            <mxPoint x="-590.7777777777778" y="647.4074074074074" as="targetPoint" />
          </mxGeometry>
        </mxCell>
        <mxCell id="Jk9G3dKGDSGm85qnFEIC-7" value="失败" style="rhombus;whiteSpace=wrap;html=1;aspect=fixed;fontSize=14;labelBackgroundColor=none;fillColor=#F2CC8F;strokeColor=#E07A5F;fontColor=#393C56;" vertex="1" parent="1">
          <mxGeometry x="-626.3333333333334" y="512.5925925925926" width="71.11111111111111" height="71.11111111111111" as="geometry" />
        </mxCell>
        <mxCell id="Jk9G3dKGDSGm85qnFEIC-8" style="edgeStyle=orthogonalEdgeStyle;rounded=0;orthogonalLoop=1;jettySize=auto;html=1;exitX=0.5;exitY=1;exitDx=0;exitDy=0;entryX=0.5;entryY=0;entryDx=0;entryDy=0;strokeColor=#E07A5F;strokeWidth=2;fontColor=#393C56;startArrow=none;startFill=0;endArrow=classic;endFill=1;fillColor=#F2CC8F;fontSize=14;" edge="1" parent="1" source="Jk9G3dKGDSGm85qnFEIC-5" target="Jk9G3dKGDSGm85qnFEIC-7">
          <mxGeometry relative="1" as="geometry" />
        </mxCell>
        <mxCell id="Jk9G3dKGDSGm85qnFEIC-9" style="edgeStyle=orthogonalEdgeStyle;rounded=0;orthogonalLoop=1;jettySize=auto;html=1;exitX=0.5;exitY=1;exitDx=0;exitDy=0;strokeColor=#E07A5F;strokeWidth=2;fontColor=#393C56;startArrow=none;startFill=0;endArrow=classic;endFill=1;fillColor=#F2CC8F;fontSize=14;" edge="1" parent="1" source="Jk9G3dKGDSGm85qnFEIC-10">
          <mxGeometry relative="1" as="geometry">
            <mxPoint x="-759.6666666666665" y="772.5925925925926" as="targetPoint" />
          </mxGeometry>
        </mxCell>
        <mxCell id="Jk9G3dKGDSGm85qnFEIC-10" value="冻结日志（冻结成功）" style="rounded=0;whiteSpace=wrap;html=1;aspect=fixed;fontSize=14;labelBackgroundColor=none;fillColor=#F2CC8F;strokeColor=#E07A5F;fontColor=#393C56;" vertex="1" parent="1">
          <mxGeometry x="-813" y="372.96296296296293" width="106.66666666666666" height="53.33333333333333" as="geometry" />
        </mxCell>
        <mxCell id="Jk9G3dKGDSGm85qnFEIC-11" style="edgeStyle=orthogonalEdgeStyle;rounded=0;orthogonalLoop=1;jettySize=auto;html=1;exitX=0;exitY=0.5;exitDx=0;exitDy=0;entryX=1;entryY=0.5;entryDx=0;entryDy=0;strokeColor=#E07A5F;strokeWidth=2;fontColor=#393C56;startArrow=none;startFill=0;endArrow=classic;endFill=1;fillColor=#F2CC8F;fontSize=14;" edge="1" parent="1" source="Jk9G3dKGDSGm85qnFEIC-5" target="Jk9G3dKGDSGm85qnFEIC-10">
          <mxGeometry relative="1" as="geometry" />
        </mxCell>
        <mxCell id="Jk9G3dKGDSGm85qnFEIC-12" value="更新职位状态" style="rounded=0;whiteSpace=wrap;html=1;aspect=fixed;fontSize=14;labelBackgroundColor=none;fillColor=#F2CC8F;strokeColor=#E07A5F;fontColor=#393C56;" vertex="1" parent="1">
          <mxGeometry x="-804.1111111111111" y="782.2222222222223" width="106.66666666666666" height="53.33333333333333" as="geometry" />
        </mxCell>
        <mxCell id="Jk9G3dKGDSGm85qnFEIC-13" style="edgeStyle=orthogonalEdgeStyle;rounded=0;orthogonalLoop=1;jettySize=auto;html=1;exitX=0.5;exitY=1;exitDx=0;exitDy=0;strokeColor=#E07A5F;strokeWidth=2;fontColor=#393C56;startArrow=none;startFill=0;endArrow=classic;endFill=1;fillColor=#F2CC8F;fontSize=14;" edge="1" parent="1" source="Jk9G3dKGDSGm85qnFEIC-14">
          <mxGeometry relative="1" as="geometry">
            <mxPoint x="-590.7777777777778" y="772.5925925925926" as="targetPoint" />
          </mxGeometry>
        </mxCell>
        <mxCell id="Jk9G3dKGDSGm85qnFEIC-14" value="失败" style="rounded=0;whiteSpace=wrap;html=1;aspect=fixed;fontSize=14;labelBackgroundColor=none;fillColor=#F2CC8F;strokeColor=#E07A5F;fontColor=#393C56;" vertex="1" parent="1">
          <mxGeometry x="-635.2222222222222" y="657.0370370370371" width="88.88888888888889" height="44.44444444444444" as="geometry" />
        </mxCell>
        <mxCell id="Jk9G3dKGDSGm85qnFEIC-15" style="edgeStyle=orthogonalEdgeStyle;rounded=0;orthogonalLoop=1;jettySize=auto;html=1;exitX=0;exitY=0.5;exitDx=0;exitDy=0;strokeColor=#E07A5F;strokeWidth=2;fontColor=#393C56;startArrow=none;startFill=0;endArrow=classic;endFill=1;fillColor=#F2CC8F;dashed=1;fontSize=14;" edge="1" parent="1" source="Jk9G3dKGDSGm85qnFEIC-16">
          <mxGeometry relative="1" as="geometry">
            <mxPoint x="-315.2222222222222" y="541.4814814814815" as="targetPoint" />
          </mxGeometry>
        </mxCell>
        <mxCell id="Jk9G3dKGDSGm85qnFEIC-16" value="task" style="rounded=0;whiteSpace=wrap;html=1;fillColor=#F2CC8F;aspect=fixed;fontSize=14;labelBackgroundColor=none;strokeColor=#E07A5F;fontColor=#393C56;" vertex="1" parent="1">
          <mxGeometry x="-226.33333333333337" y="512.5925925925926" width="106.66666666666666" height="53.33333333333333" as="geometry" />
        </mxCell>
        <mxCell id="Jk9G3dKGDSGm85qnFEIC-17" style="edgeStyle=orthogonalEdgeStyle;rounded=0;orthogonalLoop=1;jettySize=auto;html=1;strokeColor=#E07A5F;strokeWidth=2;fontColor=#393C56;startArrow=none;startFill=0;endArrow=classic;endFill=1;fillColor=#F2CC8F;fontSize=14;" edge="1" parent="1" source="Jk9G3dKGDSGm85qnFEIC-18">
          <mxGeometry relative="1" as="geometry">
            <mxPoint x="-688.5555555555557" y="811.1111111111113" as="targetPoint" />
          </mxGeometry>
        </mxCell>
        <mxCell id="Jk9G3dKGDSGm85qnFEIC-18" value="冻结日志（冻结、解冻中）" style="rounded=0;whiteSpace=wrap;html=1;aspect=fixed;fontSize=14;labelBackgroundColor=none;fillColor=#F2CC8F;strokeColor=#E07A5F;fontColor=#393C56;" vertex="1" parent="1">
          <mxGeometry x="-644.1111111111111" y="782.2222222222223" width="106.66666666666666" height="53.33333333333333" as="geometry" />
        </mxCell>
        <mxCell id="Jk9G3dKGDSGm85qnFEIC-19" style="edgeStyle=orthogonalEdgeStyle;rounded=0;orthogonalLoop=1;jettySize=auto;html=1;exitX=0.5;exitY=1;exitDx=0;exitDy=0;strokeColor=#E07A5F;strokeWidth=2;fontColor=#393C56;startArrow=none;startFill=0;endArrow=classic;endFill=1;fillColor=#F2CC8F;fontSize=14;" edge="1" parent="1" source="Jk9G3dKGDSGm85qnFEIC-20">
          <mxGeometry relative="1" as="geometry">
            <mxPoint x="-359.66666666666674" y="657.037037037037" as="targetPoint" />
          </mxGeometry>
        </mxCell>
        <mxCell id="Jk9G3dKGDSGm85qnFEIC-20" value="MySql" style="shape=datastore;whiteSpace=wrap;html=1;dashed=1;fillColor=none;aspect=fixed;fontSize=14;labelBackgroundColor=none;strokeColor=#E07A5F;fontColor=#393C56;" vertex="1" parent="1">
          <mxGeometry x="-386.33333333333337" y="522.2222222222222" width="53.33333333333333" height="53.33333333333333" as="geometry" />
        </mxCell>
        <mxCell id="Jk9G3dKGDSGm85qnFEIC-21" style="edgeStyle=orthogonalEdgeStyle;rounded=0;orthogonalLoop=1;jettySize=auto;html=1;exitX=0.5;exitY=1;exitDx=0;exitDy=0;entryX=1;entryY=0.5;entryDx=0;entryDy=0;strokeColor=#E07A5F;strokeWidth=2;fontColor=#393C56;startArrow=none;startFill=0;endArrow=classic;endFill=1;fillColor=#F2CC8F;fontSize=14;" edge="1" parent="1" source="Jk9G3dKGDSGm85qnFEIC-22" target="Jk9G3dKGDSGm85qnFEIC-18">
          <mxGeometry relative="1" as="geometry" />
        </mxCell>
        <mxCell id="Jk9G3dKGDSGm85qnFEIC-22" value="查询支付侧" style="rounded=0;whiteSpace=wrap;html=1;fillColor=#F2CC8F;aspect=fixed;fontSize=14;labelBackgroundColor=none;strokeColor=#E07A5F;fontColor=#393C56;" vertex="1" parent="1">
          <mxGeometry x="-404.11111111111114" y="676.2962962962964" width="106.66666666666666" height="53.33333333333333" as="geometry" />
        </mxCell>
        <mxCell id="Jk9G3dKGDSGm85qnFEIC-23" style="edgeStyle=orthogonalEdgeStyle;rounded=0;orthogonalLoop=1;jettySize=auto;html=1;exitX=0;exitY=0.5;exitDx=0;exitDy=0;strokeColor=#E07A5F;strokeWidth=2;fontColor=#393C56;startArrow=none;startFill=0;endArrow=classic;endFill=1;fillColor=#F2CC8F;fontSize=14;" edge="1" parent="1" source="Jk9G3dKGDSGm85qnFEIC-24">
          <mxGeometry relative="1" as="geometry">
            <mxPoint x="-368.55555555555566" y="393.1851851851852" as="targetPoint" />
          </mxGeometry>
        </mxCell>
        <mxCell id="Jk9G3dKGDSGm85qnFEIC-24" value="写入冻结日志&lt;br style=&quot;font-size: 14px;&quot;&gt;（冻结中）" style="rounded=0;whiteSpace=wrap;html=1;aspect=fixed;fontSize=14;labelBackgroundColor=none;fillColor=#F2CC8F;strokeColor=#E07A5F;fontColor=#393C56;" vertex="1" parent="1">
          <mxGeometry x="-297.44444444444446" y="365.51925925925923" width="93.33333333333333" height="50.91555555555556" as="geometry" />
        </mxCell>
        <mxCell id="Jk9G3dKGDSGm85qnFEIC-25" style="edgeStyle=orthogonalEdgeStyle;rounded=0;orthogonalLoop=1;jettySize=auto;html=1;exitX=0;exitY=0.5;exitDx=0;exitDy=0;strokeColor=#E07A5F;strokeWidth=2;fontColor=#393C56;startArrow=none;startFill=0;endArrow=classic;endFill=1;fillColor=#F2CC8F;fontSize=14;" edge="1" parent="1" source="Jk9G3dKGDSGm85qnFEIC-26">
          <mxGeometry relative="1" as="geometry">
            <mxPoint x="-190.77777777777783" y="397.03703703703695" as="targetPoint" />
          </mxGeometry>
        </mxCell>
        <mxCell id="Jk9G3dKGDSGm85qnFEIC-26" value="计算冻结金额" style="rounded=0;whiteSpace=wrap;html=1;aspect=fixed;fontSize=14;labelBackgroundColor=none;fillColor=#F2CC8F;strokeColor=#E07A5F;fontColor=#393C56;" vertex="1" parent="1">
          <mxGeometry x="-128.55555555555566" y="368.1481481481482" width="106.66666666666666" height="53.33333333333333" as="geometry" />
        </mxCell>
        <mxCell id="Jk9G3dKGDSGm85qnFEIC-27" value="资金余额校验" style="rounded=0;whiteSpace=wrap;html=1;fontSize=14;labelBackgroundColor=none;fillColor=#F2CC8F;strokeColor=#E07A5F;fontColor=#393C56;" vertex="1" parent="1">
          <mxGeometry x="-448.55555555555554" y="88.88888888888889" width="115.55555555555554" height="57.77777777777778" as="geometry" />
        </mxCell>
        <mxCell id="Jk9G3dKGDSGm85qnFEIC-28" value="资金冻结状态校验" style="rounded=0;whiteSpace=wrap;html=1;fontSize=14;labelBackgroundColor=none;fillColor=#F2CC8F;strokeColor=#E07A5F;fontColor=#393C56;" vertex="1" parent="1">
          <mxGeometry x="-146.33333333333337" y="88.88888888888889" width="115.55555555555554" height="57.77777777777778" as="geometry" />
        </mxCell>
        <mxCell id="Jk9G3dKGDSGm85qnFEIC-29" value="职位合法性权限校验" style="rounded=0;whiteSpace=wrap;html=1;fontSize=14;labelBackgroundColor=none;fillColor=#F2CC8F;strokeColor=#E07A5F;fontColor=#393C56;" vertex="1" parent="1">
          <mxGeometry x="-297.44444444444446" y="88.88888888888889" width="124.44444444444443" height="57.77777777777778" as="geometry" />
        </mxCell>
        <mxCell id="Jk9G3dKGDSGm85qnFEIC-30" style="edgeStyle=orthogonalEdgeStyle;rounded=0;orthogonalLoop=1;jettySize=auto;html=1;exitX=1;exitY=0.5;exitDx=0;exitDy=0;strokeColor=#E07A5F;strokeWidth=2;fontColor=#393C56;startArrow=none;startFill=0;endArrow=classic;endFill=1;fillColor=#F2CC8F;fontSize=14;" edge="1" parent="1" source="Jk9G3dKGDSGm85qnFEIC-36">
          <mxGeometry relative="1" as="geometry">
            <mxPoint x="-128.55555555555566" y="262.2222222222222" as="targetPoint" />
          </mxGeometry>
        </mxCell>
        <mxCell id="Jk9G3dKGDSGm85qnFEIC-31" style="edgeStyle=orthogonalEdgeStyle;rounded=0;orthogonalLoop=1;jettySize=auto;html=1;exitX=0.5;exitY=1;exitDx=0;exitDy=0;strokeColor=#E07A5F;strokeWidth=2;fontColor=#393C56;startArrow=none;startFill=0;endArrow=classic;endFill=1;fillColor=#F2CC8F;fontSize=14;" edge="1" parent="1" source="Jk9G3dKGDSGm85qnFEIC-37">
          <mxGeometry relative="1" as="geometry">
            <mxPoint x="-79.66666666666697" y="358.5185185185185" as="targetPoint" />
          </mxGeometry>
        </mxCell>
        <mxCell id="Jk9G3dKGDSGm85qnFEIC-32" value="" style="rounded=0;whiteSpace=wrap;html=1;strokeColor=#E07A5F;fontColor=#393C56;fillColor=none;dashed=1;fontSize=14;" vertex="1" parent="1">
          <mxGeometry x="-457.44444444444446" y="60" width="444.44444444444446" height="115.55555555555556" as="geometry" />
        </mxCell>
        <mxCell id="Jk9G3dKGDSGm85qnFEIC-33" style="edgeStyle=orthogonalEdgeStyle;rounded=0;orthogonalLoop=1;jettySize=auto;html=1;exitX=0.5;exitY=1;exitDx=0;exitDy=0;strokeColor=#E07A5F;strokeWidth=2;fontColor=#393C56;startArrow=none;startFill=0;endArrow=classic;endFill=1;fillColor=#F2CC8F;fontSize=14;" edge="1" parent="1" source="Jk9G3dKGDSGm85qnFEIC-32" target="Jk9G3dKGDSGm85qnFEIC-32">
          <mxGeometry relative="1" as="geometry" />
        </mxCell>
        <mxCell id="Jk9G3dKGDSGm85qnFEIC-34" style="edgeStyle=orthogonalEdgeStyle;rounded=0;orthogonalLoop=1;jettySize=auto;html=1;strokeColor=#E07A5F;strokeWidth=2;fontColor=#393C56;startArrow=none;startFill=0;endArrow=classic;endFill=1;fillColor=#F2CC8F;fontSize=14;" edge="1" parent="1" source="Jk9G3dKGDSGm85qnFEIC-37">
          <mxGeometry relative="1" as="geometry">
            <mxPoint x="-79.66666666666697" y="185.18518518518522" as="targetPoint" />
          </mxGeometry>
        </mxCell>
        <mxCell id="Jk9G3dKGDSGm85qnFEIC-35" style="edgeStyle=orthogonalEdgeStyle;rounded=0;orthogonalLoop=1;jettySize=auto;html=1;exitX=1;exitY=0.5;exitDx=0;exitDy=0;startArrow=none;startFill=0;endArrow=classic;endFill=1;fontSize=14;strokeWidth=2;labelBackgroundColor=none;strokeColor=#E07A5F;fontColor=default;" edge="1" parent="1" source="Jk9G3dKGDSGm85qnFEIC-36">
          <mxGeometry relative="1" as="geometry">
            <mxPoint x="-217.44444444444457" y="260" as="targetPoint" />
          </mxGeometry>
        </mxCell>
        <mxCell id="Jk9G3dKGDSGm85qnFEIC-36" value="分销后台上线职位" style="rounded=0;whiteSpace=wrap;html=1;aspect=fixed;fontSize=14;labelBackgroundColor=none;fillColor=#F2CC8F;strokeColor=#E07A5F;fontColor=#393C56;" vertex="1" parent="1">
          <mxGeometry x="-306" y="233.33333333333331" width="97.77777777777777" height="53.33333333333333" as="geometry" />
        </mxCell>
        <mxCell id="Jk9G3dKGDSGm85qnFEIC-37" value="职位状态校验" style="rounded=0;whiteSpace=wrap;html=1;aspect=fixed;fontSize=14;labelBackgroundColor=none;fillColor=#F2CC8F;strokeColor=#E07A5F;fontColor=#393C56;" vertex="1" parent="1">
          <mxGeometry x="-128.55555555555566" y="233.33333333333331" width="97.77777777777777" height="53.33333333333333" as="geometry" />
        </mxCell>
        <mxCell id="Jk9G3dKGDSGm85qnFEIC-38" style="edgeStyle=orthogonalEdgeStyle;rounded=0;orthogonalLoop=1;jettySize=auto;html=1;exitX=1;exitY=0.5;exitDx=0;exitDy=0;entryX=0;entryY=0.5;entryDx=0;entryDy=0;startArrow=none;startFill=0;endArrow=classic;endFill=1;fontSize=14;strokeWidth=2;labelBackgroundColor=none;strokeColor=#E07A5F;fontColor=default;" edge="1" parent="1" source="Jk9G3dKGDSGm85qnFEIC-39" target="Jk9G3dKGDSGm85qnFEIC-36">
          <mxGeometry relative="1" as="geometry" />
        </mxCell>
        <mxCell id="Jk9G3dKGDSGm85qnFEIC-39" value="职位创建" style="rounded=0;whiteSpace=wrap;html=1;aspect=fixed;fontSize=14;labelBackgroundColor=none;fillColor=#F2CC8F;strokeColor=#E07A5F;fontColor=#393C56;" vertex="1" parent="1">
          <mxGeometry x="-648.5588888888889" y="233.33333333333331" width="97.77777777777777" height="53.33333333333333" as="geometry" />
        </mxCell>
        <mxCell id="Jk9G3dKGDSGm85qnFEIC-40" value="发布用工计划" style="rounded=0;whiteSpace=wrap;html=1;strokeColor=#E07A5F;fontColor=#393C56;fillColor=#F2CC8F;fontSize=14;" vertex="1" parent="1">
          <mxGeometry x="-489" y="233.33333333333331" width="106.66666666666666" height="53.33333333333333" as="geometry" />
        </mxCell>
      </root>
    </mxGraphModel>
  </diagram>
</mxfile>
